<?xml version="1.0" encoding="UTF-8"?> <!-- Generator: Adobe Illustrator 22.0.1, SVG Export Plug-In . SVG Version: 6.00 Build 0) --> <svg xmlns="http://www.w3.org/2000/svg" xmlns:xlink="http://www.w3.org/1999/xlink" id="Camada_1" x="0px" y="0px" viewBox="0 0 509.5 376" style="enable-background:new 0 0 509.5 376;" xml:space="preserve"> <style type="text/css"> .st0{opacity:0.278;fill:#7C8185;enable-background:new ;} .st1{fill:#5C666B;} .st2{fill:#D6EACE;} .st3{opacity:0.1;fill:#FFFFFF;enable-background:new ;} .st4{fill:#FFFFFF;stroke:#FFFFFF;stroke-miterlimit:10;} .st5{fill:#96C940;} .st6{opacity:0.54;fill:#FFFFFF;enable-background:new ;} .st7{fill:#EC4195;} </style> <g> <path id="Path_133" class="st0" d="M450.3,348H18.5c-3.5,0-6.3-2.7-6.3-6.2l0,0v-316c0-3.5,2.8-6.3,6.3-6.2l0,0h431.8 c3.5,0,6.3,2.7,6.3,6.2l0,0v315.9C456.7,345.2,453.8,348,450.3,348z"></path> <path id="Path_2195" class="st0" d="M435,360H6.3c-3.5,0-6.3-2.8-6.3-6.2l0,0v-316c0-3.5,2.8-6.2,6.3-6.2l0,0H435 c3.5,0,6.3,2.8,6.3,6.2l0,0v315.9C441.3,357.2,438.5,360,435,360z"></path> <path id="Path_134" class="st1" d="M464.7,335.1H31.3c-3.5,0-6.4-2.8-6.4-6.3l0,0V6.8c0-3.5,2.8-6.4,6.3-6.4l0,0h433.4 c3.5,0,6.4,2.8,6.4,6.3l0,0v321.9C471.1,332.2,468.2,335,464.7,335.1z"></path> <circle id="Ellipse_1" class="st2" cx="428.1" cy="18.6" r="3.7"></circle> <circle id="Ellipse_2" class="st2" cx="439.1" cy="18.6" r="3.7"></circle> <circle id="Ellipse_3" class="st2" cx="450.1" cy="18.6" r="3.7"></circle> <path id="Path_137" class="st3" d="M464.7,0.5H248v334.6h216.7c3.5,0,6.4-2.8,6.4-6.3l0,0V6.9C471.1,3.4,468.3,0.5,464.7,0.5 L464.7,0.5z"></path> <path id="Path_138" class="st4" d="M57.1,75c-1,0-1.4-0.4-1.4-1.5v-2.4c0-0.7-0.1-1.2-0.7-1.2c-0.1,0-0.1-0.1-0.1-0.1v-0.6 c0-0.1,0.1-0.1,0.1-0.1c0.6-0.1,0.7-0.6,0.7-1.2v-2.4c0-1.1,0.4-1.5,1.4-1.5h0.3c0.1,0,0.1,0.1,0.1,0.1v0.6c0,0.1-0.1,0.1-0.1,0.1 h-0.3c-0.4,0-0.6,0.3-0.6,0.7v2.5c0,0.7-0.3,1.2-0.8,1.5c0.6,0.3,1,1,0.8,1.5v2.5c0,0.4,0.1,0.7,0.6,0.7h0.3c0.1,0,0.1,0.1,0.1,0.1 v0.6c0,0.1-0.1,0.1-0.1,0.1L57.1,75L57.1,75z"></path> <path id="Path_138_4_" class="st4" d="M103.9,104.2c-1,0-1.4-0.4-1.4-1.5v-2.4c0-0.7-0.1-1.2-0.7-1.2c-0.1,0-0.1-0.1-0.1-0.1v-0.6 c0-0.1,0.1-0.1,0.1-0.1c0.6-0.1,0.7-0.6,0.7-1.2v-2.4c0-1.1,0.4-1.5,1.4-1.5h0.3c0.1,0,0.1,0.1,0.1,0.1v0.6c0,0.1-0.1,0.1-0.1,0.1 h-0.3c-0.4,0-0.6,0.3-0.6,0.7v2.5c0,0.7-0.3,1.2-0.8,1.5c0.6,0.3,1,1,0.8,1.5v2.5c0,0.4,0.1,0.7,0.6,0.7h0.3c0.1,0,0.1,0.1,0.1,0.1 v0.6c0,0.1-0.1,0.1-0.1,0.1L103.9,104.2L103.9,104.2z"></path> <path id="Path_138_5_" class="st4" d="M105.6,151.4c-1,0-1.4-0.4-1.4-1.5v-2.4c0-0.7-0.1-1.2-0.7-1.2c-0.1,0-0.1-0.1-0.1-0.1v-0.6 c0-0.1,0.1-0.1,0.1-0.1c0.6-0.1,0.7-0.6,0.7-1.2v-2.4c0-1.1,0.4-1.5,1.4-1.5h0.3c0.1,0,0.1,0.1,0.1,0.1v0.6c0,0.1-0.1,0.1-0.1,0.1 h-0.3c-0.4,0-0.6,0.3-0.6,0.7v2.5c0,0.7-0.3,1.2-0.8,1.5c0.6,0.3,1,1,0.8,1.5v2.5c0,0.4,0.1,0.7,0.6,0.7h0.3c0.1,0,0.1,0.1,0.1,0.1 v0.6c0,0.1-0.1,0.1-0.1,0.1L105.6,151.4L105.6,151.4z"></path> <path id="Path_138_1_" class="st4" d="M76.3,251.5c1,0,1.4,0.4,1.4,1.5v2.4c0,0.7,0.1,1.2,0.7,1.2c0.1,0,0.1,0.1,0.1,0.1v0.6 c0,0.1-0.1,0.1-0.1,0.1c-0.6,0.1-0.7,0.6-0.7,1.2v2.4c0,1.1-0.4,1.5-1.4,1.5h-0.3c-0.1,0-0.1-0.1-0.1-0.1v-0.6 c0-0.1,0.1-0.1,0.1-0.1h0.3c0.4,0,0.6-0.3,0.6-0.7v-2.5c0-0.7,0.3-1.2,0.8-1.5c-0.6-0.3-1-1-0.8-1.5V253c0-0.4-0.1-0.7-0.6-0.7 h-0.3c-0.1,0-0.1-0.1-0.1-0.1v-0.6c0-0.1,0.1-0.1,0.1-0.1L76.3,251.5L76.3,251.5z"></path> <path id="Path_435" class="st5" d="M50.5,14h-8.7c-0.2,0-0.4,0.2-0.4,0.4l0,0l0,0v3.3c0,0.2,0.2,0.4,0.4,0.4l0,0h2.5l2.7-1.9 c0.2-0.2,0.5-0.2,0.8-0.1c0.3,0.1,0.6,0.4,0.6,0.8v3.6c0,0.3-0.1,0.5-0.3,0.7c-0.3,0.3-0.8,0.3-1.1,0.1l-2.7-1.9h-2.5 c-0.2,0-0.4,0.2-0.4,0.4l0,0l0,0v8.7c0,0.2,0.2,0.4,0.4,0.4l0,0h3.3c0.2,0,0.4-0.2,0.4-0.4l0,0v-4.6c0-0.2,0.2-0.4,0.4-0.4l0,0h4.7 c0.2,0,0.4-0.2,0.4-0.4l0,0v-8.7C51,14.2,50.8,14,50.5,14z"></path> <path id="Path_436" class="st5" d="M41.8,8.6h3.3c0.2,0,0.4,0.2,0.4,0.4l0,0v3.3c0,0.2-0.2,0.4-0.4,0.4l0,0h-3.3 c-0.2,0-0.4-0.2-0.4-0.4l0,0V9C41.4,8.8,41.6,8.6,41.8,8.6L41.8,8.6z"></path> <path id="Path_437" class="st5" d="M36.4,19.4h3.3c0.2,0,0.4,0.2,0.4,0.4l0,0v3.3c0,0.2-0.2,0.4-0.4,0.4l0,0h-3.3 c-0.2,0-0.4-0.2-0.4-0.4l0,0v-3.3C36,19.6,36.2,19.4,36.4,19.4L36.4,19.4z"></path> <path id="Path_438" class="st5" d="M36.4,14h3.3c0.2,0,0.4,0.2,0.4,0.4l0,0v3.3c0,0.2-0.2,0.4-0.4,0.4l0,0h-3.3 c-0.2,0-0.4-0.2-0.4-0.4l0,0v-3.3C36,14.2,36.2,14,36.4,14L36.4,14z"></path> <path id="Path_439" class="st5" d="M36.4,8.6h3.3c0.2,0,0.4,0.2,0.4,0.4l0,0v3.3c0,0.2-0.2,0.4-0.4,0.4l0,0h-3.3 c-0.2,0-0.4-0.2-0.4-0.4l0,0V9C36,8.8,36.2,8.6,36.4,8.6L36.4,8.6z"></path> <path id="Path_440" class="st5" d="M47.2,8.6h3.3c0.2,0,0.4,0.2,0.4,0.4l0,0v3.3c0,0.2-0.2,0.4-0.4,0.4l0,0h-3.3 c-0.2,0-0.4-0.2-0.4-0.4l0,0V9C46.8,8.8,47,8.6,47.2,8.6z"></path> <path id="Path_441" class="st5" d="M47.2,24.8h3.3c0.2,0,0.4,0.2,0.4,0.4l0,0v3.3c0,0.2-0.2,0.4-0.4,0.4l0,0h-3.3 c-0.2,0-0.4-0.2-0.4-0.4l0,0v-3.3C46.8,25,47,24.8,47.2,24.8z"></path> <path id="Path_442" class="st5" d="M52.6,8.6h3.3c0.2,0,0.4,0.2,0.4,0.4l0,0v3.3c0,0.2-0.2,0.4-0.4,0.4l0,0h-3.3 c-0.2,0-0.4-0.2-0.4-0.4l0,0V9C52.2,8.8,52.4,8.6,52.6,8.6L52.6,8.6z"></path> <path id="Path_443" class="st5" d="M52.6,14h3.3c0.2,0,0.4,0.2,0.4,0.4l0,0v3.3c0,0.2-0.2,0.4-0.4,0.4l0,0h-3.3 c-0.2,0-0.4-0.2-0.4-0.4l0,0v-3.3C52.2,14.2,52.4,14,52.6,14L52.6,14z"></path> <path id="Path_444" class="st5" d="M52.6,19.4h3.3c0.2,0,0.4,0.2,0.4,0.4l0,0v3.3c0,0.2-0.2,0.4-0.4,0.4l0,0h-3.3 c-0.2,0-0.4-0.2-0.4-0.4l0,0v-3.3C52.2,19.6,52.4,19.4,52.6,19.4L52.6,19.4z"></path> <path id="Path_445" class="st5" d="M52.6,24.8h3.3c0.2,0,0.4,0.2,0.4,0.4l0,0v3.3c0,0.2-0.2,0.4-0.4,0.4l0,0h-3.3 c-0.2,0-0.4-0.2-0.4-0.4l0,0v-3.3C52.2,25,52.4,24.8,52.6,24.8L52.6,24.8z"></path> <path id="Path_446" class="st5" d="M36.4,24.8h3.3c0.2,0,0.4,0.2,0.4,0.4l0,0v3.3c0,0.2-0.2,0.4-0.4,0.4l0,0h-3.3 c-0.2,0-0.4-0.2-0.4-0.4l0,0v-3.3C36,25,36.2,24.8,36.4,24.8L36.4,24.8z"></path> <path id="Path_447" class="st5" d="M50.5,14h-8.7c-0.2,0-0.4,0.2-0.4,0.4l0,0l0,0v3.3c0,0.2,0.2,0.4,0.4,0.4l0,0h2.5l2.7-1.9 c0.2-0.2,0.5-0.2,0.8-0.1c0.3,0.1,0.6,0.4,0.6,0.8v3.6c0,0.3-0.1,0.5-0.3,0.7c-0.3,0.3-0.8,0.3-1.1,0.1l-2.7-1.9h-2.5 c-0.2,0-0.4,0.2-0.4,0.4l0,0l0,0v8.7c0,0.2,0.2,0.4,0.4,0.4l0,0h3.3c0.2,0,0.4-0.2,0.4-0.4l0,0v-4.6c0-0.2,0.2-0.4,0.4-0.4l0,0h4.7 c0.2,0,0.4-0.2,0.4-0.4l0,0v-8.7C51,14.2,50.8,14,50.5,14z"></path> <path id="Path_448" class="st5" d="M41.8,8.6h3.3c0.2,0,0.4,0.2,0.4,0.4l0,0v3.3c0,0.2-0.2,0.4-0.4,0.4l0,0h-3.3 c-0.2,0-0.4-0.2-0.4-0.4l0,0V9C41.4,8.8,41.6,8.6,41.8,8.6L41.8,8.6z"></path> <path id="Path_449" class="st5" d="M36.4,19.4h3.3c0.2,0,0.4,0.2,0.4,0.4l0,0v3.3c0,0.2-0.2,0.4-0.4,0.4l0,0h-3.3 c-0.2,0-0.4-0.2-0.4-0.4l0,0v-3.3C36,19.6,36.2,19.4,36.4,19.4L36.4,19.4z"></path> <path id="Path_450" class="st5" d="M36.4,14h3.3c0.2,0,0.4,0.2,0.4,0.4l0,0v3.3c0,0.2-0.2,0.4-0.4,0.4l0,0h-3.3 c-0.2,0-0.4-0.2-0.4-0.4l0,0v-3.3C36,14.2,36.2,14,36.4,14L36.4,14z"></path> <path id="Path_451" class="st5" d="M36.4,8.6h3.3c0.2,0,0.4,0.2,0.4,0.4l0,0v3.3c0,0.2-0.2,0.4-0.4,0.4l0,0h-3.3 c-0.2,0-0.4-0.2-0.4-0.4l0,0V9C36,8.8,36.2,8.6,36.4,8.6L36.4,8.6z"></path> <path id="Path_452" class="st5" d="M47.2,8.6h3.3c0.2,0,0.4,0.2,0.4,0.4l0,0v3.3c0,0.2-0.2,0.4-0.4,0.4l0,0h-3.3 c-0.2,0-0.4-0.2-0.4-0.4l0,0V9C46.8,8.8,47,8.6,47.2,8.6z"></path> <path id="Path_453" class="st5" d="M47.2,24.8h3.3c0.2,0,0.4,0.2,0.4,0.4l0,0v3.3c0,0.2-0.2,0.4-0.4,0.4l0,0h-3.3 c-0.2,0-0.4-0.2-0.4-0.4l0,0v-3.3C46.8,25,47,24.8,47.2,24.8z"></path> <path id="Path_454" class="st5" d="M52.6,8.6h3.3c0.2,0,0.4,0.2,0.4,0.4l0,0v3.3c0,0.2-0.2,0.4-0.4,0.4l0,0h-3.3 c-0.2,0-0.4-0.2-0.4-0.4l0,0V9C52.2,8.8,52.4,8.6,52.6,8.6L52.6,8.6z"></path> <path id="Path_455" class="st5" d="M52.6,14h3.3c0.2,0,0.4,0.2,0.4,0.4l0,0v3.3c0,0.2-0.2,0.4-0.4,0.4l0,0h-3.3 c-0.2,0-0.4-0.2-0.4-0.4l0,0v-3.3C52.2,14.2,52.4,14,52.6,14L52.6,14z"></path> <path id="Path_456" class="st5" d="M52.6,19.4h3.3c0.2,0,0.4,0.2,0.4,0.4l0,0v3.3c0,0.2-0.2,0.4-0.4,0.4l0,0h-3.3 c-0.2,0-0.4-0.2-0.4-0.4l0,0v-3.3C52.2,19.6,52.4,19.4,52.6,19.4L52.6,19.4z"></path> <path id="Path_457" class="st5" d="M52.6,24.8h3.3c0.2,0,0.4,0.2,0.4,0.4l0,0v3.3c0,0.2-0.2,0.4-0.4,0.4l0,0h-3.3 c-0.2,0-0.4-0.2-0.4-0.4l0,0v-3.3C52.2,25,52.4,24.8,52.6,24.8L52.6,24.8z"></path> <path id="Path_458" class="st5" d="M36.4,24.8h3.3c0.2,0,0.4,0.2,0.4,0.4l0,0v3.3c0,0.2-0.2,0.4-0.4,0.4l0,0h-3.3 c-0.2,0-0.4-0.2-0.4-0.4l0,0v-3.3C36,25,36.2,24.8,36.4,24.8L36.4,24.8z"></path> <path id="Path_459" class="st6" d="M360.7,170.3h-66.3c-2.5,0-4.5,2-4.5,4.5v0.2c0,2.5,2,4.5,4.5,4.5h66.3c2.5,0,4.5-2,4.5-4.5 v-0.2C365.2,172.3,363.3,170.3,360.7,170.3L360.7,170.3z"></path> <path id="Path_460" class="st6" d="M409.7,170.3h-29.5c-2.5,0-4.5,2-4.5,4.5v0.2c0,2.5,2,4.5,4.5,4.5h29.5c2.5,0,4.5-2,4.5-4.5 v-0.2C414.2,172.3,412.3,170.3,409.7,170.3L409.7,170.3z"></path> <path id="Path_461" class="st6" d="M422.2,136.9H294.4c-2.5,0-4.5,2-4.5,4.5v0.2c0,2.5,2,4.5,4.5,4.5h127.8c2.5,0,4.5-2,4.5-4.5 v-0.2C426.8,138.9,424.8,136.9,422.2,136.9L422.2,136.9z"></path> <path id="Path_462" class="st6" d="M309.7,103.4h-15.3c-2.5,0-4.5,2-4.5,4.5v0.2c0,2.5,2,4.5,4.5,4.5h15.3c2.5,0,4.5-2,4.5-4.5 v-0.2C314.2,105.4,312.3,103.4,309.7,103.4L309.7,103.4z"></path> <path id="Path_463" class="st6" d="M414.5,103.4h-87.4c-2.5,0-4.5,2-4.5,4.5v0.2c0,2.5,2,4.5,4.5,4.5h87.4c2.5,0,4.5-2,4.5-4.5 v-0.2C419,105.5,417,103.4,414.5,103.4L414.5,103.4z"></path> <path id="Path_464" class="st6" d="M365.8,69.9h-71.5c-2.5,0-4.5,2-4.5,4.5v0.2c0,2.5,2,4.5,4.5,4.5h71.5c2.5,0,4.5-2,4.5-4.5v-0.2 C370.4,72,368.3,69.9,365.8,69.9z"></path> <path id="Path_465" class="st6" d="M419.4,203.8h-125c-2.5,0-4.5,2-4.5,4.5v0.2c0,2.5,2,4.5,4.5,4.5h125c2.5,0,4.5-2,4.5-4.5v-0.2 C423.9,205.9,421.9,203.8,419.4,203.8z"></path> <path id="Path_466" class="st6" d="M327.8,237.3h-33.4c-2.5,0-4.5,2-4.5,4.5v0.2c0,2.5,2,4.5,4.5,4.5h33.4c2.5,0,4.5-2,4.5-4.5 v-0.2C332.3,239.3,330.4,237.3,327.8,237.3L327.8,237.3z"></path> <path class="st7" d="M124.5,89.7H61.9c-1.8,0-3.4-1.5-3.4-3.4l0,0c0-1.8,1.5-3.4,3.4-3.4h62.6c1.8,0,3.4,1.5,3.4,3.4l0,0 C127.9,88.1,126.4,89.7,124.5,89.7z"></path> <path class="st5" d="M158.3,89.7h-21.4c-1.8,0-3.4-1.5-3.4-3.4l0,0c0-1.8,1.5-3.4,3.4-3.4h21.4c1.8,0,3.4,1.5,3.4,3.4l0,0 C161.7,88.1,160.2,89.7,158.3,89.7z"></path> <path class="st7" d="M94,102H61.9c-1.8,0-3.4-1.5-3.4-3.4v0c0-1.8,1.5-3.4,3.4-3.4H94c1.8,0,3.4,1.5,3.4,3.4v0 C97.4,100.5,95.9,102,94,102z"></path> <path class="st7" d="M89.1,113.6H68.9c-1.8,0-3.4-1.5-3.4-3.4v0c0-1.8,1.5-3.4,3.4-3.4h20.2c1.8,0,3.4,1.5,3.4,3.4v0 C92.5,112.1,91,113.6,89.1,113.6z"></path> <path class="st5" d="M149.4,113.6H98.5c-1.8,0-3.4-1.5-3.4-3.4v0c0-1.8,1.5-3.4,3.4-3.4h50.8c1.8,0,3.4,1.5,3.4,3.4v0 C152.7,112.1,151.2,113.6,149.4,113.6z"></path> <path class="st7" d="M137.1,125.4H68.9c-1.8,0-3.4-1.5-3.4-3.4v0c0-1.8,1.5-3.4,3.4-3.4h68.2c1.8,0,3.4,1.5,3.4,3.4v0 C140.5,123.9,139,125.4,137.1,125.4z"></path> <path class="st5" d="M210.4,125.4H149c-1.8,0-3.4-1.5-3.4-3.4v0c0-1.8,1.5-3.4,3.4-3.4h61.5c1.8,0,3.4,1.5,3.4,3.4v0 C213.8,123.9,212.3,125.4,210.4,125.4z"></path> <path class="st7" d="M88.8,137.5H68.9c-1.8,0-3.4-1.5-3.4-3.4v0c0-1.8,1.5-3.4,3.4-3.4h19.9c1.8,0,3.4,1.5,3.4,3.4v0 C92.2,136,90.7,137.5,88.8,137.5z"></path> <path class="st5" d="M188.2,137.5H97.5c-1.8,0-3.4-1.5-3.4-3.4v0c0-1.8,1.5-3.4,3.4-3.4h90.7c1.8,0,3.4,1.5,3.4,3.4v0 C191.6,136,190.1,137.5,188.2,137.5z"></path> <path class="st7" d="M96.2,149.3H68.9c-1.8,0-3.4-1.5-3.4-3.4v0c0-1.8,1.5-3.4,3.4-3.4h27.3c1.8,0,3.4,1.5,3.4,3.4v0 C99.6,147.8,98.1,149.3,96.2,149.3z"></path> <path class="st7" d="M96.2,161.1H76c-1.8,0-3.4-1.5-3.4-3.4l0,0c0-1.8,1.5-3.4,3.4-3.4h20.2c1.8,0,3.4,1.5,3.4,3.4l0,0 C99.6,159.6,98.1,161.1,96.2,161.1z"></path> <path class="st5" d="M225.2,161.1H107.6c-1.8,0-3.4-1.5-3.4-3.4l0,0c0-1.8,1.5-3.4,3.4-3.4h117.6c1.8,0,3.4,1.5,3.4,3.4l0,0 C228.6,159.6,227.1,161.1,225.2,161.1z"></path> <path class="st7" d="M129.9,173H76c-1.8,0-3.4-1.5-3.4-3.4l0,0c0-1.8,1.5-3.4,3.4-3.4h53.9c1.8,0,3.4,1.5,3.4,3.4l0,0 C133.3,171.5,131.8,173,129.9,173z"></path> <path class="st5" d="M157.2,173h-17.1c-1.8,0-3.4-1.5-3.4-3.4l0,0c0-1.8,1.5-3.4,3.4-3.4h17.1c1.8,0,3.4,1.5,3.4,3.4l0,0 C160.6,171.5,159.1,173,157.2,173z"></path> <path class="st7" d="M104,184.6H76c-1.8,0-3.4-1.5-3.4-3.4v0c0-1.8,1.5-3.4,3.4-3.4h28c1.8,0,3.4,1.5,3.4,3.4v0 C107.4,183.1,105.9,184.6,104,184.6z"></path> <path class="st5" d="M150.1,184.6h-35.7c-1.8,0-3.4-1.5-3.4-3.4v0c0-1.8,1.5-3.4,3.4-3.4h35.7c1.8,0,3.4,1.5,3.4,3.4v0 C153.4,183.1,151.9,184.6,150.1,184.6z"></path> <path class="st7" d="M126.5,197.1H76c-1.8,0-3.4-1.5-3.4-3.4v0c0-1.8,1.5-3.4,3.4-3.4h50.5c1.8,0,3.4,1.5,3.4,3.4v0 C129.9,195.6,128.4,197.1,126.5,197.1z"></path> <path class="st5" d="M195.8,197.1h-58.4c-1.8,0-3.4-1.5-3.4-3.4v0c0-1.8,1.5-3.4,3.4-3.4h58.4c1.8,0,3.4,1.5,3.4,3.4v0 C199.2,195.6,197.7,197.1,195.8,197.1z"></path> <path class="st7" d="M92.5,220.6H68.8c-1.8,0-3.4-1.5-3.4-3.4v0c0-1.8,1.5-3.4,3.4-3.4h23.7c1.8,0,3.4,1.5,3.4,3.4v0 C95.9,219,94.4,220.6,92.5,220.6z"></path> <path class="st7" d="M89.5,232.3H77.1c-1.8,0-3.4-1.5-3.4-3.4l0,0c0-1.8,1.5-3.4,3.4-3.4h12.4c1.8,0,3.4,1.5,3.4,3.4l0,0 C92.9,230.8,91.4,232.3,89.5,232.3z"></path> <path class="st5" d="M104.3,232.3h-4.5c-1.8,0-3.4-1.5-3.4-3.4v0c0-1.8,1.5-3.4,3.4-3.4h4.5c1.8,0,3.4,1.5,3.4,3.4v0 C107.6,230.8,106.1,232.3,104.3,232.3z"></path> <path class="st7" d="M103.7,244.7H77.1c-1.8,0-3.4-1.5-3.4-3.4v0c0-1.8,1.5-3.4,3.4-3.4h26.6c1.8,0,3.4,1.5,3.4,3.4v0 C107.1,243.1,105.6,244.7,103.7,244.7z"></path> <path class="st5" d="M153,244.7h-38.4c-1.8,0-3.4-1.5-3.4-3.4l0,0c0-1.8,1.5-3.4,3.4-3.4H153c1.8,0,3.4,1.5,3.4,3.4l0,0 C156.4,243.1,154.9,244.7,153,244.7z"></path> <path id="Path_138_2_" class="st4" d="M66.3,268.5c1,0,1.4,0.4,1.4,1.5v2.4c0,0.7,0.1,1.2,0.7,1.2c0.1,0,0.1,0.1,0.1,0.1v0.6 c0,0.1-0.1,0.1-0.1,0.1c-0.6,0.1-0.7,0.6-0.7,1.2v2.4c0,1.1-0.4,1.5-1.4,1.5h-0.3c-0.1,0-0.1-0.1-0.1-0.1v-0.6 c0-0.1,0.1-0.1,0.1-0.1h0.3c0.4,0,0.6-0.3,0.6-0.7v-2.5c0-0.7,0.3-1.2,0.8-1.5c-0.6-0.3-1-1-0.8-1.5V270c0-0.4-0.1-0.7-0.6-0.7 h-0.3c-0.1,0-0.1-0.1-0.1-0.1v-0.6c0-0.1,0.1-0.1,0.1-0.1L66.3,268.5L66.3,268.5z"></path> <path id="Path_138_3_" class="st4" d="M55.3,286.5c1,0,1.4,0.4,1.4,1.5v2.4c0,0.7,0.1,1.2,0.7,1.2c0.1,0,0.1,0.1,0.1,0.1v0.6 c0,0.1-0.1,0.1-0.1,0.1c-0.6,0.1-0.7,0.6-0.7,1.2v2.4c0,1.1-0.4,1.5-1.4,1.5h-0.3c-0.1,0-0.1-0.1-0.1-0.1v-0.6 c0-0.1,0.1-0.1,0.1-0.1h0.3c0.4,0,0.6-0.3,0.6-0.7v-2.5c0-0.7,0.3-1.2,0.8-1.5c-0.6-0.3-1-1-0.8-1.5V288c0-0.4-0.1-0.7-0.6-0.7 h-0.3c-0.1,0-0.1-0.1-0.1-0.1v-0.6c0-0.1,0.1-0.1,0.1-0.1L55.3,286.5L55.3,286.5z"></path> </g> </svg> 